<svg width="150" height="35" viewBox="0 0 150 35" fill="none" xmlns="http://www.w3.org/2000/svg">
<path d="M0.732513 19.468C0.788513 18.768 1.01251 18.208 1.40451 17.788C1.82451 17.368 2.31451 17.046 2.87451 16.822C3.43451 16.598 4.02251 16.458 4.63851 16.402C5.28251 16.346 5.85651 16.318 6.36051 16.318C7.22851 16.318 8.11051 16.43 9.00651 16.654C9.93051 16.85 10.8125 17.116 11.6525 17.452C12.5205 17.788 13.3185 18.166 14.0465 18.586C14.8025 19.006 15.4465 19.426 15.9785 19.846C16.8745 20.574 17.2105 21.106 16.9865 21.442C16.7905 21.75 16.2165 21.904 15.2645 21.904C13.6125 21.876 12.0025 21.974 10.4345 22.198C8.89451 22.394 7.43851 22.576 6.06651 22.744C5.56251 22.828 4.98851 22.828 4.34451 22.744C3.72851 22.66 3.14051 22.492 2.58051 22.24C2.02051 21.96 1.55851 21.596 1.19451 21.148C0.830513 20.672 0.676513 20.112 0.732513 19.468ZM11.1065 9.556C11.5545 9.892 12.0025 10.284 12.4505 10.732C12.8985 11.152 13.3465 11.6 13.7945 12.076C14.2425 12.552 14.6625 13.028 15.0545 13.504C15.4745 13.952 15.8665 14.344 16.2305 14.68C16.8465 15.268 17.0845 15.758 16.9445 16.15C16.8325 16.542 16.3705 16.668 15.5585 16.528C15.1945 16.472 14.6765 16.318 14.0045 16.066C13.3605 15.786 12.6885 15.478 11.9885 15.142C11.3165 14.778 10.6725 14.414 10.0565 14.05C9.46851 13.686 9.03451 13.364 8.75451 13.084C8.08251 12.412 7.73251 11.796 7.70451 11.236C7.67651 10.648 7.83051 10.186 8.16651 9.85C8.50251 9.486 8.95051 9.276 9.51051 9.22C10.0705 9.136 10.6025 9.248 11.1065 9.556ZM10.3085 30.64C9.80451 30.948 9.27251 31.074 8.71251 31.018C8.15251 30.934 7.70451 30.724 7.36851 30.388C7.03251 30.024 6.87851 29.562 6.90651 29.002C6.93451 28.414 7.28451 27.784 7.95651 27.112C8.23651 26.832 8.67051 26.51 9.25851 26.146C9.87451 25.782 10.5185 25.432 11.1905 25.096C11.8905 24.732 12.5625 24.424 13.2065 24.172C13.8785 23.892 14.3965 23.724 14.7605 23.668C15.5725 23.528 16.0345 23.654 16.1465 24.046C16.2865 24.438 16.0485 24.928 15.4325 25.516C15.0685 25.852 14.6765 26.258 14.2565 26.734C13.8645 27.182 13.4445 27.644 12.9965 28.12C12.5485 28.596 12.1005 29.058 11.6525 29.506C11.2045 29.926 10.7565 30.304 10.3085 30.64ZM36.5549 14.302C36.3029 15.03 35.9949 15.856 35.6309 16.78C35.2669 17.704 34.8469 18.614 34.3709 19.51C33.9509 20.294 33.4469 21.05 32.8589 21.778C32.2989 22.478 31.6829 23.08 31.0109 23.584C30.3389 24.088 29.6249 24.438 28.8689 24.634C28.1129 24.83 27.3429 24.802 26.5589 24.55C25.2989 24.13 24.3189 23.388 23.6189 22.324C22.9189 21.232 22.4149 20.014 22.1069 18.67C21.7989 17.326 21.6449 15.968 21.6449 14.596C21.6729 13.224 21.7849 12.048 21.9809 11.068C22.2329 9.752 22.6389 8.534 23.1989 7.414C23.7589 6.294 24.5009 5.342 25.4249 4.558C25.8729 4.194 26.3209 3.956 26.7689 3.844C27.2449 3.704 27.6509 3.69 27.9869 3.802C28.3509 3.914 28.6029 4.152 28.7429 4.516C28.9109 4.852 28.8969 5.286 28.7009 5.818C27.8609 8.002 27.2449 10.256 26.8529 12.58C26.4609 14.904 26.3909 17.158 26.6429 19.342C26.7269 19.958 26.8529 20.476 27.0209 20.896C27.1889 21.288 27.4129 21.568 27.6929 21.736C27.9729 21.876 28.2949 21.876 28.6589 21.736C29.0229 21.568 29.4149 21.218 29.8349 20.686C30.4509 19.874 31.0669 18.824 31.6829 17.536C32.2989 16.248 32.8729 14.904 33.4049 13.504C33.9649 12.104 34.4829 10.746 34.9589 9.43C35.4349 8.114 35.8689 7.008 36.2609 6.112C36.4849 5.524 36.8209 5.048 37.2689 4.684C37.7169 4.292 38.2629 4.166 38.9069 4.306C39.5509 4.418 39.9849 4.698 40.2089 5.146C40.4609 5.594 40.5869 6.098 40.5869 6.658C40.5589 8.086 40.5729 9.626 40.6289 11.278C40.7129 12.902 40.7549 14.568 40.7549 16.276C40.7549 17.984 40.6849 19.678 40.5449 21.358C40.4329 23.038 40.1809 24.62 39.7889 26.104C39.5649 26.916 39.2569 27.756 38.8649 28.624C38.4729 29.464 37.9829 30.234 37.3949 30.934C36.8349 31.634 36.1769 32.208 35.4209 32.656C34.6649 33.076 33.8249 33.258 32.9009 33.202C32.1729 33.174 31.5149 32.922 30.9269 32.446C30.3389 31.97 29.8629 31.382 29.4989 30.682C29.1629 29.954 28.9389 29.184 28.8269 28.372C28.7149 27.532 28.7709 26.734 28.9949 25.978C29.1909 25.67 29.4569 25.46 29.7929 25.348C30.1569 25.208 30.4929 25.166 30.8009 25.222C31.1089 25.278 31.3609 25.418 31.5569 25.642C31.7809 25.866 31.8649 26.16 31.8089 26.524C31.8369 27.308 31.9629 27.924 32.1869 28.372C32.4109 28.82 32.6769 29.114 32.9849 29.254C33.3209 29.366 33.6709 29.352 34.0349 29.212C34.3989 29.044 34.7209 28.764 35.0009 28.372C35.2529 28.036 35.4629 27.504 35.6309 26.776C35.7989 26.048 35.9249 25.236 36.0089 24.34C36.1209 23.416 36.2049 22.45 36.2609 21.442C36.3449 20.406 36.4009 19.426 36.4289 18.502C36.4569 17.578 36.4709 16.752 36.4709 16.024C36.4989 15.268 36.5269 14.694 36.5549 14.302ZM58.0979 26.902C57.7059 27.63 57.3139 28.344 56.9219 29.044C56.5579 29.744 56.1239 30.388 55.6199 30.976C54.7239 32.04 53.6879 32.642 52.5119 32.782C51.3359 32.922 50.1879 32.586 49.0679 31.774C48.0599 31.046 47.2619 30.122 46.6739 29.002C46.0859 27.882 45.6799 26.664 45.4559 25.348C45.2319 24.032 45.1479 22.66 45.2039 21.232C45.2599 19.804 45.4139 18.418 45.6659 17.074C45.9459 15.702 46.2819 14.414 46.6739 13.21C47.0939 12.006 47.5279 10.956 47.9759 10.06C48.1439 9.696 48.3399 9.346 48.5639 9.01C48.7879 8.674 49.0119 8.352 49.2359 8.044C49.5999 7.624 50.0199 7.372 50.4959 7.288C50.9719 7.204 51.4199 7.274 51.8399 7.498C52.7079 8.002 53.0159 8.8 52.7639 9.892C52.7359 10.088 52.6939 10.27 52.6379 10.438C52.6099 10.606 52.5679 10.774 52.5119 10.942C52.2879 11.922 52.0499 12.902 51.7979 13.882C51.5459 14.834 51.3499 15.8 51.2099 16.78C50.9859 18.292 50.8319 19.79 50.7479 21.274C50.6639 22.758 50.7759 24.256 51.0839 25.768C51.2519 26.58 51.4759 27.252 51.7559 27.784C52.0359 28.288 52.3579 28.624 52.7219 28.792C53.0859 28.932 53.4639 28.89 53.8559 28.666C54.2759 28.414 54.6819 27.924 55.0739 27.196C56.2779 24.9 57.2719 22.408 58.0559 19.72C58.8399 17.004 59.5119 14.372 60.0719 11.824C60.2119 11.152 60.3799 10.396 60.5759 9.556C60.7719 8.716 60.9679 7.876 61.1639 7.036C61.3879 6.196 61.6259 5.398 61.8779 4.642C62.1299 3.858 62.3959 3.186 62.6759 2.626C63.2639 1.422 64.0899 0.945999 65.1539 1.198C65.6299 1.282 66.0079 1.534 66.2879 1.954C66.5679 2.346 66.6939 2.864 66.6659 3.508C66.5259 6.728 66.3579 9.92 66.1619 13.084C65.9939 16.248 65.8679 19.44 65.7839 22.66C65.7839 23.136 65.7839 23.752 65.7839 24.508C65.7839 25.236 65.7559 26.034 65.6999 26.902C65.6439 27.742 65.5459 28.596 65.4059 29.464C65.2939 30.332 65.0979 31.13 64.8179 31.858C64.5659 32.558 64.2159 33.146 63.7679 33.622C63.3199 34.098 62.7739 34.364 62.1299 34.42C61.3459 34.476 60.6599 34.308 60.0719 33.916C59.5119 33.524 59.1199 32.922 58.8959 32.11C58.6719 31.214 58.5039 30.346 58.3919 29.506C58.3079 28.638 58.2099 27.77 58.0979 26.902ZM72.858 11.11C72.27 11.334 71.808 11.446 71.472 11.446C71.164 11.418 70.912 11.278 70.716 11.026C70.464 10.662 70.422 10.27 70.59 9.85C70.758 9.43 71.01 9.024 71.346 8.632C71.682 8.24 72.06 7.89 72.48 7.582C72.9 7.274 73.236 7.05 73.488 6.91C74.664 6.294 75.994 5.86 77.478 5.608C78.962 5.328 80.446 5.244 81.93 5.356C83.442 5.468 84.856 5.776 86.172 6.28C87.516 6.784 88.608 7.512 89.448 8.464C90.316 9.388 90.862 10.55 91.086 11.95C91.31 13.322 91.058 14.932 90.33 16.78C89.77 18.18 89.098 19.37 88.314 20.35C87.53 21.33 86.634 22.17 85.626 22.87C84.646 23.542 83.568 24.102 82.392 24.55C81.244 24.97 80.026 25.32 78.738 25.6C78.766 26.328 78.794 27.042 78.822 27.742C78.85 28.414 78.85 29.1 78.822 29.8C78.822 30.276 78.78 30.738 78.696 31.186C78.64 31.634 78.514 32.04 78.318 32.404C78.122 32.74 77.87 33.034 77.562 33.286C77.254 33.51 76.848 33.636 76.344 33.664C75.7 33.72 75.196 33.608 74.832 33.328C74.468 33.048 74.174 32.684 73.95 32.236C73.754 31.788 73.614 31.312 73.53 30.808C73.446 30.304 73.362 29.842 73.278 29.422C72.97 27.574 72.746 25.628 72.606 23.584C72.466 21.512 72.382 19.594 72.354 17.83C72.326 16.038 72.354 14.526 72.438 13.294C72.55 12.034 72.69 11.306 72.858 11.11ZM76.89 8.422C77.422 9.99 77.758 11.978 77.898 14.386C78.038 16.794 78.22 19.468 78.444 22.408C79.172 22.464 79.9 22.366 80.628 22.114C81.356 21.862 82.042 21.54 82.686 21.148C83.358 20.728 83.974 20.252 84.534 19.72C85.094 19.188 85.57 18.656 85.962 18.124C86.494 17.396 86.886 16.598 87.138 15.73C87.39 14.834 87.474 13.952 87.39 13.084C87.306 12.216 87.054 11.404 86.634 10.648C86.214 9.892 85.598 9.29 84.786 8.842C83.498 8.17 82.196 7.848 80.88 7.876C79.564 7.876 78.234 8.058 76.89 8.422ZM100.954 19.72C100.786 21.232 100.688 22.758 100.66 24.298C100.632 25.81 100.646 27.336 100.702 28.876C101.458 28.764 102.186 28.666 102.886 28.582C103.586 28.498 104.286 28.428 104.986 28.372C105.518 28.344 106.064 28.386 106.624 28.498C107.016 28.582 107.324 28.778 107.548 29.086C107.8 29.366 107.898 29.646 107.842 29.926C107.758 30.542 107.268 30.934 106.372 31.102C105.672 31.214 104.972 31.354 104.272 31.522C103.572 31.662 102.858 31.788 102.13 31.9C101.178 32.096 100.184 32.222 99.148 32.278C98.504 32.334 97.944 32.208 97.468 31.9C97.02 31.564 96.67 31.116 96.418 30.556C96.082 29.716 95.858 28.862 95.746 27.994C95.634 27.126 95.564 26.258 95.536 25.39C95.508 24.494 95.508 23.612 95.536 22.744C95.592 21.848 95.62 20.966 95.62 20.098C94.892 19.874 94.402 19.664 94.15 19.468C93.926 19.244 93.842 18.936 93.898 18.544C93.982 17.984 94.22 17.648 94.612 17.536C95.004 17.424 95.396 17.34 95.788 17.284C95.956 16.192 96.096 14.876 96.208 13.336C96.348 11.768 96.544 10.256 96.796 8.8C96.572 8.856 96.446 8.898 96.418 8.926C96.39 8.926 96.278 8.94 96.082 8.968C95.326 9.052 94.864 8.786 94.696 8.17C94.584 7.89 94.584 7.638 94.696 7.414C94.808 7.162 94.962 6.952 95.158 6.784C95.382 6.588 95.62 6.434 95.872 6.322C96.124 6.21 96.362 6.112 96.586 6.028C98.042 5.496 99.484 5.118 100.912 4.894C102.34 4.642 103.754 4.6 105.154 4.768C105.742 4.824 106.386 4.936 107.086 5.104C107.786 5.244 108.444 5.454 109.06 5.734C109.704 6.014 110.25 6.378 110.698 6.826C111.174 7.274 111.44 7.806 111.496 8.422C111.58 9.01 111.356 9.43 110.824 9.682C110.208 9.99 109.746 9.892 109.438 9.388C108.99 8.8 108.444 8.366 107.8 8.086C107.184 7.806 106.526 7.624 105.826 7.54C105.154 7.456 104.454 7.442 103.726 7.498C103.026 7.554 102.368 7.61 101.752 7.666C101.64 9.234 101.542 10.774 101.458 12.286C101.374 13.77 101.262 15.268 101.122 16.78H103.558C103.726 16.78 103.894 16.794 104.062 16.822C104.258 16.822 104.44 16.85 104.608 16.906C105.028 17.102 105.252 17.424 105.28 17.872C105.308 18.292 105.112 18.614 104.692 18.838C104.496 18.95 104.258 19.048 103.978 19.132C103.726 19.188 103.488 19.244 103.264 19.3C102.9 19.356 102.536 19.412 102.172 19.468C101.836 19.496 101.472 19.538 101.08 19.594C101.052 19.594 101.024 19.622 100.996 19.678C100.996 19.706 100.982 19.72 100.954 19.72ZM121.183 19.72C121.015 21.232 120.917 22.758 120.889 24.298C120.861 25.81 120.875 27.336 120.931 28.876C121.687 28.764 122.415 28.666 123.115 28.582C123.815 28.498 124.515 28.428 125.215 28.372C125.747 28.344 126.293 28.386 126.853 28.498C127.245 28.582 127.553 28.778 127.777 29.086C128.029 29.366 128.127 29.646 128.071 29.926C127.987 30.542 127.497 30.934 126.601 31.102C125.901 31.214 125.201 31.354 124.501 31.522C123.801 31.662 123.087 31.788 122.359 31.9C121.407 32.096 120.413 32.222 119.377 32.278C118.733 32.334 118.173 32.208 117.697 31.9C117.249 31.564 116.899 31.116 116.647 30.556C116.311 29.716 116.087 28.862 115.975 27.994C115.863 27.126 115.793 26.258 115.765 25.39C115.737 24.494 115.737 23.612 115.765 22.744C115.821 21.848 115.849 20.966 115.849 20.098C115.121 19.874 114.631 19.664 114.379 19.468C114.155 19.244 114.071 18.936 114.127 18.544C114.211 17.984 114.449 17.648 114.841 17.536C115.233 17.424 115.625 17.34 116.017 17.284C116.185 16.192 116.325 14.876 116.437 13.336C116.577 11.768 116.773 10.256 117.025 8.8C116.801 8.856 116.675 8.898 116.647 8.926C116.619 8.926 116.507 8.94 116.311 8.968C115.555 9.052 115.093 8.786 114.925 8.17C114.813 7.89 114.813 7.638 114.925 7.414C115.037 7.162 115.191 6.952 115.387 6.784C115.611 6.588 115.849 6.434 116.101 6.322C116.353 6.21 116.591 6.112 116.815 6.028C118.271 5.496 119.713 5.118 121.141 4.894C122.569 4.642 123.983 4.6 125.383 4.768C125.971 4.824 126.615 4.936 127.315 5.104C128.015 5.244 128.673 5.454 129.289 5.734C129.933 6.014 130.479 6.378 130.927 6.826C131.403 7.274 131.669 7.806 131.725 8.422C131.809 9.01 131.585 9.43 131.053 9.682C130.437 9.99 129.975 9.892 129.667 9.388C129.219 8.8 128.673 8.366 128.029 8.086C127.413 7.806 126.755 7.624 126.055 7.54C125.383 7.456 124.683 7.442 123.955 7.498C123.255 7.554 122.597 7.61 121.981 7.666C121.869 9.234 121.771 10.774 121.687 12.286C121.603 13.77 121.491 15.268 121.351 16.78H123.787C123.955 16.78 124.123 16.794 124.291 16.822C124.487 16.822 124.669 16.85 124.837 16.906C125.257 17.102 125.481 17.424 125.509 17.872C125.537 18.292 125.341 18.614 124.921 18.838C124.725 18.95 124.487 19.048 124.207 19.132C123.955 19.188 123.717 19.244 123.493 19.3C123.129 19.356 122.765 19.412 122.401 19.468C122.065 19.496 121.701 19.538 121.309 19.594C121.281 19.594 121.253 19.622 121.225 19.678C121.225 19.706 121.211 19.72 121.183 19.72ZM149.229 19.468C149.285 20.112 149.131 20.672 148.767 21.148C148.403 21.596 147.941 21.96 147.381 22.24C146.821 22.492 146.219 22.66 145.575 22.744C144.959 22.828 144.399 22.828 143.895 22.744C142.523 22.576 141.053 22.394 139.485 22.198C137.945 21.974 136.349 21.876 134.697 21.904C133.745 21.904 133.157 21.75 132.933 21.442C132.737 21.106 133.087 20.574 133.983 19.846C134.515 19.426 135.145 19.006 135.873 18.586C136.629 18.166 137.427 17.788 138.267 17.452C139.135 17.116 140.017 16.85 140.913 16.654C141.837 16.43 142.733 16.318 143.601 16.318C144.105 16.318 144.665 16.346 145.281 16.402C145.925 16.458 146.527 16.598 147.087 16.822C147.647 17.046 148.123 17.368 148.515 17.788C148.935 18.208 149.173 18.768 149.229 19.468ZM138.855 9.556C139.359 9.248 139.891 9.136 140.451 9.22C141.011 9.276 141.459 9.486 141.795 9.85C142.131 10.186 142.285 10.648 142.257 11.236C142.229 11.796 141.879 12.412 141.207 13.084C140.927 13.364 140.479 13.686 139.863 14.05C139.275 14.414 138.631 14.778 137.931 15.142C137.259 15.478 136.587 15.786 135.915 16.066C135.271 16.318 134.767 16.472 134.403 16.528C133.591 16.668 133.115 16.542 132.975 16.15C132.863 15.758 133.115 15.268 133.731 14.68C134.095 14.344 134.473 13.952 134.865 13.504C135.285 13.028 135.719 12.552 136.167 12.076C136.615 11.6 137.063 11.152 137.511 10.732C137.959 10.284 138.407 9.892 138.855 9.556ZM139.653 30.64C139.205 30.304 138.757 29.926 138.309 29.506C137.861 29.058 137.413 28.596 136.965 28.12C136.517 27.644 136.083 27.182 135.663 26.734C135.271 26.258 134.893 25.852 134.529 25.516C133.913 24.928 133.661 24.438 133.773 24.046C133.913 23.654 134.389 23.528 135.201 23.668C135.565 23.724 136.069 23.892 136.713 24.172C137.385 24.424 138.057 24.732 138.729 25.096C139.429 25.432 140.073 25.782 140.661 26.146C141.277 26.51 141.725 26.832 142.005 27.112C142.677 27.784 143.027 28.414 143.055 29.002C143.083 29.562 142.929 30.024 142.593 30.388C142.257 30.724 141.809 30.934 141.249 31.018C140.689 31.074 140.157 30.948 139.653 30.64Z" fill="#8FA83B"/>
</svg>
